<?xml version="1.0" standalone="no"?>
<!DOCTYPE svg PUBLIC "-//W3C//DTD SVG 20010904//EN"
 "http://www.w3.org/TR/2001/REC-SVG-20010904/DTD/svg10.dtd">
<svg version="1.0" xmlns="http://www.w3.org/2000/svg"
 width="300.000000pt" height="300.000000pt" viewBox="0 0 300.000000 300.000000"
 preserveAspectRatio="xMidYMid meet">
<metadata>
Created by potrace 1.11, written by Peter Selinger 2001-2013
</metadata>
<g transform="translate(0.000000,300.000000) scale(0.100000,-0.100000)"
fill="#000000" stroke="none">
<path d="M1437 2994 c-1 -1 -36 -4 -77 -8 -41 -3 -87 -8 -102 -11 -16 -3 -38
-7 -51 -9 -60 -10 -242 -69 -309 -99 -256 -117 -419 -253 -626 -522 -13 -17
-102 -165 -102 -170 0 -2 -12 -30 -26 -61 -31 -68 -54 -130 -60 -164 -3 -13
-10 -30 -16 -37 -6 -7 -8 -13 -5 -13 3 0 -1 -22 -8 -50 -7 -27 -11 -50 -9 -50
3 0 1 -8 -5 -17 -24 -47 -33 -338 -14 -468 18 -129 58 -282 92 -360 28 -63 74
-155 94 -190 107 -188 266 -358 462 -496 99 -70 342 -178 460 -205 46 -11 122
-25 150 -29 17 -2 48 -7 70 -10 46 -6 230 -7 290 -1 259 25 518 123 728 273
89 65 234 202 293 278 22 28 42 52 45 55 10 8 103 161 128 210 47 91 109 273
126 365 2 17 7 41 10 55 11 56 18 150 18 240 0 95 -11 249 -19 262 -2 3 -6 19
-8 35 -2 15 -9 48 -16 73 -7 25 -13 50 -14 55 -22 115 -157 376 -265 510 -247
307 -617 510 -1001 551 -52 5 -229 11 -233 8z"/>
</g>
</svg>
